<?xml version="1.0" encoding="UTF-8"?>
<svg width="1024px" height="1024px" viewBox="0 0 1024 1024" version="1.1" xmlns="http://www.w3.org/2000/svg" xmlns:xlink="http://www.w3.org/1999/xlink">
    <title>Artboard</title>
    <g id="Artboard" stroke="none" stroke-width="1" fill="none" fill-rule="evenodd">
        <g id="airport-tower-svgrepo-com" transform="translate(201, 75)" fill="#000000" fill-rule="nonzero">
            <path d="M617.286273,266.604081 C613.531192,262.195573 608.031354,259.652148 602.235964,259.652148 L476.549245,259.652148 L505.623285,120.359277 C506.841188,114.531249 505.366283,108.469014 501.611202,103.850577 C497.858976,99.2278552 492.22207,96.5473336 486.272479,96.5473336 L330.769271,96.5473336 L330.769271,39.5423353 L365.690101,39.5423353 C376.605538,39.5423353 385.457821,30.6924725 385.457821,19.7704536 C385.457821,8.84843474 376.605538,0 365.690101,0 L256.310145,0 C245.394709,0 236.542426,8.84986283 236.542426,19.7718817 C236.542426,30.6939006 245.394709,39.5437634 256.310145,39.5437634 L291.230976,39.5437634 L291.230976,96.5516179 L135.730623,96.5516179 C129.781032,96.5516179 124.142699,99.2321395 120.391901,103.854861 C116.636819,108.473299 115.16477,114.535533 116.379817,120.363561 L145.453857,259.656432 L19.7671387,259.656432 C13.976032,259.656432 8.47619398,262.198429 4.71682911,266.608366 C0.961747607,271.016874 -0.671641457,276.857755 0.253564936,282.57582 L18.5820749,396.324477 C18.5863583,396.34447 18.5863583,396.360179 18.5863583,396.380172 L39.7847214,527.922808 C40.7499059,533.909354 44.3436474,538.907663 49.2695148,541.813822 C52.226463,543.557518 55.66172,544.545755 59.299723,544.545755 L181.195665,544.545755 L181.195665,854.228118 C181.195665,865.150137 190.047949,874 200.963385,874 L421.034006,874 C431.949442,874 440.801726,865.150137 440.801726,854.228118 L440.801726,544.544327 L562.697668,544.544327 C566.334243,544.544327 569.773784,543.55609 572.727876,541.812394 C577.653744,538.906235 581.247485,533.91221 582.21267,527.92138 L603.411033,396.378744 C603.415316,396.358751 603.415316,396.343042 603.415316,396.323049 L621.743826,282.574392 C622.674744,276.853471 621.041355,271.01259 617.286273,266.604081 Z M452.356811,182.049833 L414.317693,182.049833 L414.317693,136.093953 L461.948689,136.093953 L452.356811,182.049833 Z M374.786536,136.093953 L374.786536,182.049833 L330.769271,182.049833 L330.769271,136.093953 L374.786536,136.093953 Z M291.235259,182.049833 L247.21371,182.049833 L247.21371,136.093953 L291.230976,136.093953 L291.230976,182.049833 L291.235259,182.049833 L291.235259,182.049833 Z M207.679698,136.093953 L207.679698,182.049833 L169.639152,182.049833 L160.048702,136.093953 L207.679698,136.093953 Z M142.321291,373.452215 L54.9392595,373.452215 L42.9715435,299.195911 L142.317008,299.195911 L142.317008,373.452215 L142.321291,373.452215 Z M291.235259,373.452215 L181.855303,373.452215 L181.855303,299.195911 L291.235259,299.195911 L291.235259,373.452215 Z M440.144944,373.452215 L330.764988,373.452215 L330.764988,299.195911 L440.144944,299.195911 L440.144944,373.452215 Z M567.062415,373.452215 L479.680383,373.452215 L479.680383,299.195911 L579.025848,299.195911 L567.062415,373.452215 Z" id="Shape"></path>
        </g>
    </g>
</svg>